<svg width="25" height="24" viewBox="0 0 25 24" fill="none" xmlns="http://www.w3.org/2000/svg">
<path d="M13.5322 2.99628C13.1468 2.33213 12.1877 2.33213 11.8024 2.99628L9.08831 7.67359C8.89794 8.00168 8.56889 8.22557 8.19382 8.28222L3.10751 9.05044C2.25323 9.17947 1.95357 10.2581 2.61887 10.8093L6.40796 13.9485C6.75871 14.2391 6.92363 14.6975 6.83842 15.1449L5.84726 20.35C5.69057 21.1729 6.55436 21.8122 7.29551 21.4219L12.0849 18.9001C12.4494 18.7082 12.8851 18.7082 13.2497 18.9001L18.0391 21.4219C18.7802 21.8122 19.644 21.1729 19.4873 20.35L18.4962 15.1449C18.411 14.6975 18.5759 14.2391 18.9266 13.9485L22.7157 10.8093C23.381 10.2581 23.0814 9.17947 22.2271 9.05044L17.1408 8.28222C16.7657 8.22557 16.4367 8.00168 16.2463 7.67359L13.5322 2.99628Z" fill="#FF4D4D"/>
</svg>
