<svg width="25" height="24" viewBox="0 0 25 24" fill="none" xmlns="http://www.w3.org/2000/svg">
<path d="M13.1982 2.99628C12.8129 2.33213 11.8538 2.33213 11.4684 2.99628L8.75432 7.67359C8.56395 8.00168 8.2349 8.22557 7.85984 8.28222L2.77353 9.05044C1.91924 9.17947 1.61958 10.2581 2.28489 10.8093L6.07398 13.9485C6.42472 14.2391 6.58964 14.6975 6.50444 15.1449L5.51327 20.35C5.35659 21.1729 6.22038 21.8122 6.96152 21.4219L11.7509 18.9001C12.1155 18.7082 12.5512 18.7082 12.9157 18.9001L17.7051 21.4219C18.4462 21.8122 19.31 21.1729 19.1534 20.35L18.1622 15.1449C18.077 14.6975 18.2419 14.2391 18.5926 13.9485L22.3817 10.8093C23.047 10.2581 22.7474 9.17947 21.8931 9.05044L16.8068 8.28222C16.4317 8.22557 16.1027 8.00168 15.9123 7.67359L13.1982 2.99628Z" fill="#FF4D4D"/>
</svg>
