<svg width="20" height="20" viewBox="0 0 20 20" fill="none" xmlns="http://www.w3.org/2000/svg">
<path fill-rule="evenodd" clip-rule="evenodd" d="M13.0732 -0.000488281H6.93763C1.33336 -0.000488281 0 1.33287 0 6.92673V13.0623C0 18.6665 1.32294 19.9999 6.92721 19.9999H13.0627C18.667 19.9999 20.0004 18.6769 20.0004 13.0727V6.93714C20.0004 1.33287 18.6774 -0.000488281 13.0732 -0.000488281ZM15.9378 6.35406C16.3753 6.35406 16.4691 6.57282 16.3753 6.88532C16.2189 7.6399 14.8106 9.67886 14.4843 10.1513C14.4412 10.2137 14.417 10.2488 14.417 10.25C14.2607 10.4896 14.1982 10.6146 14.417 10.8958C14.4915 11.0076 14.6611 11.1737 14.8551 11.3636C15.0408 11.5455 15.2488 11.7492 15.417 11.9479C16.042 12.6563 16.5107 13.25 16.6462 13.6563C16.7712 14.0625 16.5628 14.2709 16.1462 14.2709H14.6878C14.3009 14.2709 14.1033 14.0509 13.679 13.5786C13.4979 13.377 13.2755 13.1294 12.9794 12.8334C12.1148 12 11.7502 11.8958 11.5315 11.8958C11.2294 11.8958 11.1461 11.9792 11.1461 12.3958V13.7084C11.1461 14.0625 11.0315 14.2709 10.1044 14.2709C8.56268 14.2709 6.86473 13.3334 5.65637 11.6042C3.84384 9.07287 3.35425 7.15616 3.35425 6.77074C3.35425 6.55199 3.43758 6.35406 3.85426 6.35406H5.31262C5.68762 6.35406 5.82304 6.52074 5.96888 6.90616C6.67723 8.98953 7.88558 10.8021 8.37518 10.8021C8.56268 10.8021 8.64601 10.7187 8.64601 10.25V8.1041C8.6076 7.5022 8.396 7.2388 8.23864 7.04291C8.14 6.92013 8.06267 6.82387 8.06267 6.6874C8.06267 6.53115 8.20851 6.35406 8.43768 6.35406H10.7294C11.0419 6.35406 11.1461 6.51032 11.1461 6.88532V9.78121C11.1461 10.0937 11.2815 10.1979 11.3752 10.1979C11.5627 10.1979 11.7086 10.0937 12.0523 9.74996C13.1044 8.58327 13.844 6.77074 13.844 6.77074C13.9378 6.55199 14.1045 6.35406 14.4795 6.35406H15.9378Z" fill="#0F1113"/>
</svg>
